Coordinates
version=1
nRows=15
nColumns=34
inDegrees=yes

Units are S.I. units (second, meters, Newtons, ...)
If the header above contains a line with 'inDegrees', this indicates whether rotational values are in degrees (yes) or radians (no).

endheader
time	pelvis_tilt	pelvis_list	pelvis_rotation	pelvis_tx	pelvis_ty	pelvis_tz	hip_flexion_r	hip_adduction_r	hip_rotation_r	knee_angle_r	ankle_angle_r	subtalar_angle_r	mtp_angle_r	hip_flexion_l	hip_adduction_l	hip_rotation_l	knee_angle_l	ankle_angle_l	subtalar_angle_l	mtp_angle_l	lumbar_extension	lumbar_bending	lumbar_rotation	arm_flex_r	arm_add_r	arm_rot_r	elbow_flex_r	pro_sup_r	arm_flex_l	arm_add_l	arm_rot_l	elbow_flex_l	pro_sup_l
      3.71666670	    -12.38438247	      3.87732971	    -10.90390787	     -0.00933388	      1.16397356	     -0.07104662	      6.66239263	      0.71966705	      3.10740255	      4.88133217	     11.10165867	     -0.87960844	      0.00000000	      9.52575032	      3.34227985	     -3.54635516	     11.55552461	      6.94943874	     -8.05301075	      0.00000000	     -2.28883458	      0.54095531	     -2.47368047	     -1.86442806	     -7.69328082	     15.67938481	     20.00662240	     64.61775227	     -9.26504195	    -11.53563245	     33.06576565	     25.18151360	     74.38387925
      3.73333330	    -13.05260317	      3.96117136	    -11.04817457	     -0.00398319	      1.16392963	     -0.07118736	      8.31224940	      0.85981391	      4.30161546	      7.06902130	     11.62805689	     -3.13771242	      0.00000000	     10.92361105	      3.40018672	     -2.77368104	     13.44024818	      7.10601913	     -9.62977674	      0.00000000	     -2.01894134	      0.67569708	     -2.25613190	     -1.88327962	     -7.96945500	     18.49433810	     19.61100149	     62.75984095	     -8.46875439	    -11.96969188	     38.24629911	     24.74109236	     75.17999292
      3.75000000	    -13.06440391	      3.97444848	    -11.23801353	      0.00057439	      1.16130475	     -0.07275751	      9.39565539	      0.89578855	      4.85699986	      9.55275924	     12.79483929	     -3.89457791	      0.00000000	     11.75429311	      3.48512028	     -2.63359739	     15.66653015	      7.93133352	    -10.49711145	      0.00000000	     -2.85453394	      0.81375486	     -1.85980821	     -1.79132897	     -8.09679383	     18.74491470	     19.52540627	     62.45614763	     -7.98557617	    -11.90699848	     38.42719891	     24.92085928	     75.06468745
      3.76666670	    -13.64181300	      4.09468890	    -11.34636771	      0.00797209	      1.15538805	     -0.07188134	     11.29242573	      1.00412253	      5.75355221	     12.61485840	     13.46265836	     -5.85920297	      0.00000000	     13.42038967	      3.55746900	     -2.42921193	     18.45413114	      8.30045360	    -11.75700436	      0.00000000	     -2.89620905	      0.87127135	     -1.72528573	     -1.80925396	     -8.17078842	     19.49087350	     19.43825077	     61.89439493	     -7.72620790	    -11.95708341	     39.23924197	     25.15946427	     74.88675960
      3.78333330	    -13.88544552	      4.13658116	    -11.51425896	      0.01331064	      1.15059706	     -0.07215730	     12.85126643	      1.18854679	      6.74265913	     15.87407394	     14.42451994	     -8.06906712	      0.00000000	     14.70076498	      3.62114528	     -2.24987830	     21.36886309	      8.87301313	    -13.05044705	      0.00000000	     -3.39209744	      0.98613769	     -1.54743775	     -1.57773649	     -8.35855273	     20.46195375	     19.34675756	     61.33451684	     -7.30348106	    -11.88148586	     40.18978704	     25.16315996	     74.63941322
      3.80000000	    -14.05611311	      4.18635130	    -11.65758701	      0.02093346	      1.14428823	     -0.07166869	     14.25100715	      1.36634669	      7.69655682	     19.05431972	     15.68591132	    -10.09753628	      0.00000000	     15.92892479	      3.71134646	     -2.14260084	     24.48248398	      9.48603649	    -14.24316647	      0.00000000	     -3.84877219	      1.00727153	     -1.39109729	     -1.38153358	     -8.46561211	     21.55348391	     19.19697027	     60.80377114	     -6.70199534	    -11.89604780	     41.05262986	     25.06091847	     74.30986652
      3.81666670	    -13.71375776	      4.14983816	    -11.80205855	      0.02860252	      1.13836764	     -0.07297653	     14.97809791	      1.46909395	      8.41130722	     22.20027133	     17.24705640	    -11.52840196	      0.00000000	     16.49011760	      3.90137622	     -1.98656912	     27.44382587	     10.46690959	    -15.17592967	      0.00000000	     -4.94492548	      1.12534015	     -1.47469671	     -1.02785438	     -8.56133602	     21.88188509	     19.13292650	     60.65624292	     -6.12557702	    -11.79809073	     41.31090349	     25.04263351	     74.20433724
      3.83333330	    -14.07912564	      4.34187214	    -11.96003042	      0.03733524	      1.13157267	     -0.07190740	     16.43862645	      1.64250954	      9.38711438	     25.50635240	     18.24353074	    -13.77907489	      0.00000000	     17.91528041	      4.10578277	     -2.07482621	     30.55593225	     11.06978243	    -16.50290416	      0.00000000	     -4.75831572	      1.07249083	     -1.29032603	     -0.87904560	     -8.68557621	     23.00940633	     19.04819258	     60.30170273	     -5.83490700	    -11.71121907	     42.21431564	     24.82016246	     73.89314796
      3.85000000	    -13.67543530	      4.38367276	    -11.91565537	      0.04907073	      1.12443794	     -0.07083188	     16.54662991	      1.72006173	      9.96768506	     28.20045680	     19.88026856	    -14.83290406	      0.00000000	     18.24514493	      4.40578394	     -1.94978342	     33.43477795	     12.15559281	    -17.37597725	      0.00000000	     -5.42392327	      1.05436812	     -1.36646336	     -0.61907585	     -8.69569981	     23.36360545	     18.98075464	     60.19999860	     -5.20380431	    -11.71906417	     42.41377484	     24.67005114	     73.77832160
      3.86666670	    -13.31440998	      4.43868443	    -11.76787008	      0.05926007	      1.12199204	     -0.06834265	     16.32671258	      1.77522430	     10.31237059	     30.41787318	     21.23237326	    -15.75373518	      0.00000000	     18.36704304	      4.65233701	     -1.81641028	     35.97893826	     12.73111618	    -17.87627168	      0.00000000	     -5.83273446	      0.96877886	     -1.46087386	     -0.45808081	     -8.46111567	     23.57789770	     18.98166266	     60.17021681	     -4.71541644	    -11.86181069	     42.49320117	     24.51792213	     73.72316148
      3.88333330	    -13.03617600	      4.53654548	    -11.64602812	      0.07396362	      1.12178527	     -0.06710238	     15.55251366	      1.77075313	     10.82989677	     31.63352588	     22.05532396	    -16.72245815	      0.00000000	     18.09019630	      4.97246252	     -1.51285295	     37.65312073	     13.42280457	    -18.46326476	      0.00000000	     -5.55250737	      0.79665465	     -1.52546493	     -0.01754861	     -8.68887263	     27.72545775	     18.42608709	     59.31646847	     -3.63319965	    -11.74926081	     45.58364409	     23.09142945	     72.53079507
      3.90000000	    -12.79507101	      4.67713782	    -11.51210714	      0.08799121	      1.11780115	     -0.06495084	     14.45959771	      1.63753860	     11.08015134	     32.23963999	     22.96517026	    -17.23092092	      0.00000000	     17.56935234	      5.27780277	     -1.39895080	     38.97678139	     13.57239471	    -18.74077239	      0.00000000	     -5.11064703	      0.55543053	     -1.58881844	     -0.13220881	     -8.43616645	     27.79956555	     18.45161426	     59.25350271	     -3.30308561	    -11.88602739	     45.52384761	     23.09381034	     72.43997312
      3.91666670	    -11.90127384	      4.69868374	    -11.45185128	      0.09851421	      1.11469224	     -0.06255792	     12.27934557	      1.35113276	     11.02825939	     31.93811533	     23.58360916	    -17.85434531	      0.00000000	     15.85725884	      5.72323092	     -0.92386313	     39.27713915	     13.31404781	    -19.70354249	      0.00000000	     -5.59147956	      0.27722370	     -1.54416251	      0.36462848	     -8.34760006	     28.07740475	     18.52226490	     58.95168057	     -2.29345859	    -11.96715333	     45.29375482	     23.02218041	     71.95741434
      3.93333330	    -11.47378733	      4.72328938	    -11.22049197	      0.11483478	      1.11509738	     -0.05912323	     10.05259210	      1.07291786	     10.63762313	     30.76584468	     23.63357662	    -17.98899504	      0.00000000	     14.21115714	      6.09390599	     -0.27429989	     38.92823939	     12.82433028	    -19.76324190	      0.00000000	     -5.13368872	      0.11547129	     -1.68752018	      0.68923926	     -8.21834968	     28.27580212	     18.63265258	     58.76216023	     -1.47708425	    -12.14861637	     44.91150281	     23.08839842	     71.54617114
      3.95000000	    -11.11388172	      4.76903457	    -11.01307182	      0.13133703	      1.11515999	     -0.05693197	      7.55964134	      0.81813103	     10.18195886	     29.16202431	     23.33835294	    -17.35285548	      0.00000000	     12.10547134	      6.45472816	      0.35958071	     37.79084936	     11.98379548	    -19.90884068	      0.00000000	     -4.38587554	      0.02385249	     -1.79942426	      0.92665201	     -8.13043289	     28.37273737	     18.86342546	     58.62224200	     -0.54897112	    -12.50915970	     44.14630243	     23.59223898	     71.07980385
